<svg preserveAspectRatio="none" width="100%" height="100%" overflow="visible" style="display: block;" viewBox="0 0 32 32" fill="none" xmlns="http://www.w3.org/2000/svg">
<g id="close_24dp_E3E3E3_FILL0_wght400_GRAD0_opsz24 1">
<path id="Vector" d="M15.9997 17.8677L9.46641 24.401C9.22196 24.6455 8.91085 24.7677 8.53307 24.7677C8.1553 24.7677 7.84418 24.6455 7.59974 24.401C7.3553 24.1566 7.23307 23.8455 7.23307 23.4677C7.23307 23.0899 7.3553 22.7788 7.59974 22.5344L14.1331 16.001L7.59974 9.46771C7.3553 9.22326 7.23307 8.91215 7.23307 8.53437C7.23307 8.1566 7.3553 7.84549 7.59974 7.60104C7.84418 7.3566 8.1553 7.23438 8.53307 7.23438C8.91085 7.23438 9.22196 7.3566 9.46641 7.60104L15.9997 14.1344L22.5331 7.60104C22.7775 7.3566 23.0886 7.23438 23.4664 7.23438C23.8442 7.23438 24.1553 7.3566 24.3997 7.60104C24.6442 7.84549 24.7664 8.1566 24.7664 8.53437C24.7664 8.91215 24.6442 9.22326 24.3997 9.46771L17.8664 16.001L24.3997 22.5344C24.6442 22.7788 24.7664 23.0899 24.7664 23.4677C24.7664 23.8455 24.6442 24.1566 24.3997 24.401C24.1553 24.6455 23.8442 24.7677 23.4664 24.7677C23.0886 24.7677 22.7775 24.6455 22.5331 24.401L15.9997 17.8677Z" fill="var(--fill-0, white)"/>
</g>
</svg>
