<svg preserveAspectRatio="none" width="100%" height="100%" overflow="visible" style="display: block;" viewBox="0 0 120 120" fill="none" xmlns="http://www.w3.org/2000/svg">
<g id="Frame 1321314872">
<rect width="120" height="120" rx="19" fill="var(--fill-0, #6D0404)"/>
<path id="Vector" d="M92.7871 58.0156C91.8657 58.0156 91.0934 57.704 90.4701 57.0807C89.8468 56.4574 89.5352 55.6851 89.5352 54.7637C89.5352 53.8423 89.8468 53.0699 90.4701 52.4467C91.0934 51.8234 91.8657 51.5117 92.7871 51.5117C93.7085 51.5117 94.4808 51.8234 95.1041 52.4467C95.7274 53.0699 96.0391 53.8423 96.0391 54.7637C96.0391 55.6851 95.7274 56.4574 95.1041 57.0807C94.4808 57.704 93.7085 58.0156 92.7871 58.0156ZM92.7871 48.2598C91.8657 48.2598 91.0934 47.9481 90.4701 47.3248C89.8468 46.7015 89.5352 45.9292 89.5352 45.0078V35.252C89.5352 34.3306 89.8468 33.5582 90.4701 32.9349C91.0934 32.3116 91.8657 32 92.7871 32C93.7085 32 94.4808 32.3116 95.1041 32.9349C95.7274 33.5582 96.0391 34.3306 96.0391 35.252V45.0078C96.0391 45.9292 95.7274 46.7015 95.1041 47.3248C94.4808 47.9481 93.7085 48.2598 92.7871 48.2598ZM57.0156 61.2676C53.4385 61.2676 50.3762 59.9939 47.8289 57.4465C45.2815 54.8992 44.0078 51.8369 44.0078 48.2598C44.0078 44.6826 45.2815 41.6204 47.8289 39.073C50.3762 36.5256 53.4385 35.252 57.0156 35.252C60.5928 35.252 63.655 36.5256 66.2024 39.073C68.7498 41.6204 70.0234 44.6826 70.0234 48.2598C70.0234 51.8369 68.7498 54.8992 66.2024 57.4465C63.655 59.9939 60.5928 61.2676 57.0156 61.2676ZM31 80.7793V78.1777C31 76.335 31.4742 74.6412 32.4227 73.0966C33.3712 71.5519 34.6313 70.373 36.2031 69.5601C39.5635 67.8799 42.978 66.6198 46.4468 65.7797C49.9155 64.9396 53.4385 64.5195 57.0156 64.5195C60.5928 64.5195 64.1157 64.9396 67.5845 65.7797C71.0532 66.6198 74.4678 67.8799 77.8281 69.5601C79.3999 70.373 80.66 71.5519 81.6085 73.0966C82.557 74.6412 83.0312 76.335 83.0312 78.1777V80.7793C83.0312 82.5679 82.3944 84.099 81.1207 85.3727C79.847 86.6464 78.3159 87.2832 76.5273 87.2832H37.5039C35.7153 87.2832 34.1842 86.6464 32.9105 85.3727C31.6368 84.099 31 82.5679 31 80.7793Z" fill="var(--fill-0, white)"/>
</g>
</svg>
