<svg preserveAspectRatio="none" width="100%" height="100%" overflow="visible" style="display: block;" viewBox="0 0 68 68" fill="none" xmlns="http://www.w3.org/2000/svg">
<g id="expand_circle_down_24dp_E3E3E3_FILL0_wght300_GRAD0_opsz24 1">
<path id="Vector" d="M34 36.9204L26.753 29.6734C26.3653 29.2815 25.8806 29.0855 25.2988 29.0855C24.7175 29.0855 24.216 29.2815 23.7943 29.6734C23.3551 30.0951 23.14 30.6002 23.149 31.1886C23.158 31.777 23.3731 32.2818 23.7943 32.703L32.2072 41.1159C32.7195 41.6282 33.3171 41.8844 34 41.8844C34.6828 41.8844 35.2804 41.6282 35.7928 41.1159L44.2488 32.6598C44.6701 32.2381 44.8781 31.7404 44.8729 31.1666C44.8672 30.5929 44.6448 30.0951 44.2056 29.6734C43.7839 29.2815 43.2862 29.0827 42.7125 29.077C42.1387 29.0718 41.641 29.2798 41.2193 29.7011L34 36.9204ZM34.0049 60.9166C30.2819 60.9166 26.7825 60.2102 23.5067 58.7973C20.2309 57.3844 17.3815 55.4669 14.9585 53.0449C12.5356 50.6229 10.6172 47.7747 9.20333 44.5003C7.78997 41.2259 7.08329 37.7274 7.08329 34.0049C7.08329 30.2819 7.78974 26.7825 9.20263 23.5067C10.6155 20.2309 12.533 17.3815 14.955 14.9585C17.377 12.5356 20.2252 10.6172 23.4996 9.20332C26.774 7.78996 30.2725 7.08328 33.995 7.08328C37.718 7.08328 41.2174 7.78972 44.4932 9.20261C47.769 10.6155 50.6184 12.533 53.0414 14.955C55.4643 17.377 57.3828 20.2252 58.7966 23.4996C60.2099 26.774 60.9166 30.2725 60.9166 33.995C60.9166 37.718 60.2102 41.2174 58.7973 44.4932C57.3844 47.769 55.4669 50.6184 53.0449 53.0414C50.6229 55.4643 47.7747 57.3827 44.5003 58.7966C41.2259 60.2099 37.7274 60.9166 34.0049 60.9166ZM34 56.6666C40.3277 56.6666 45.6875 54.4708 50.0791 50.0791C54.4708 45.6874 56.6666 40.3277 56.6666 33.9999C56.6666 27.6722 54.4708 22.3124 50.0791 17.9208C45.6875 13.5291 40.3277 11.3333 34 11.3333C27.6722 11.3333 22.3125 13.5291 17.9208 17.9208C13.5291 22.3124 11.3333 27.6722 11.3333 33.9999C11.3333 40.3277 13.5291 45.6874 17.9208 50.0791C22.3125 54.4708 27.6722 56.6666 34 56.6666Z" fill="var(--fill-0, white)" fill-opacity="0.7"/>
</g>
</svg>
