<svg preserveAspectRatio="none" width="100%" height="100%" overflow="visible" style="display: block;" viewBox="0 0 120 120" fill="none" xmlns="http://www.w3.org/2000/svg">
<g id="Frame 1321314872">
<rect width="120" height="120" rx="19" fill="var(--fill-0, #052712)"/>
<path id="Vector" d="M32.4294 85.6158C30.9219 85.6158 29.6401 85.0839 28.584 84.0201C27.528 82.9557 27 81.6645 27 80.1465V77.6121C27 75.7017 27.4777 74.0322 28.4331 72.6036C29.3878 71.175 30.6556 70.0569 32.2364 69.2493C35.274 67.6893 38.4812 66.4272 41.8577 65.463C45.2349 64.4982 49.2166 64.0158 53.8029 64.0158C54.3478 64.0158 54.9354 64.0251 55.5656 64.0437C56.1952 64.0617 56.7827 64.1124 57.3283 64.1958C58.0294 64.2924 58.6181 64.6386 59.0946 65.2344C59.5711 65.8296 59.7611 66.4842 59.6646 67.1982C59.5687 67.8228 59.2915 68.3658 58.8329 68.8272C58.3748 69.2886 57.7542 69.5079 56.971 69.4851C56.5677 69.4617 56.074 69.4443 55.4897 69.4329C54.9053 69.4215 54.3431 69.4158 53.8029 69.4158C49.574 69.4158 45.8683 69.891 42.6859 70.8414C39.5041 71.7924 36.8411 72.8679 34.6969 74.0679C33.8857 74.5065 33.2936 75.0189 32.9208 75.6051C32.5473 76.1913 32.3606 76.8603 32.3606 77.6121V80.2158H56.9638C57.7232 80.2158 58.3599 80.4747 58.874 80.9925C59.3874 81.5097 59.6441 82.1511 59.6441 82.9167C59.6441 83.6823 59.3874 84.3234 58.874 84.84C58.3599 85.3572 57.7232 85.6158 56.9638 85.6158H32.4294ZM73.293 80.7144L89.4569 64.4307C89.9519 63.9327 90.574 63.6777 91.3233 63.6657C92.072 63.6543 92.7054 63.9093 93.2236 64.4307C93.7412 64.9527 94 65.5851 94 66.3279C94 67.0707 93.7412 67.7031 93.2236 68.2251L75.5543 86.0244C74.908 86.6748 74.1543 87 73.293 87C72.4317 87 71.678 86.6748 71.0317 86.0244L64.0835 79.0251C63.5892 78.5265 63.336 77.8998 63.3241 77.145C63.3128 76.3908 63.5659 75.7527 64.0835 75.2307C64.6017 74.7093 65.2295 74.4486 65.9669 74.4486C66.7043 74.4486 67.332 74.7093 67.8502 75.2307L73.293 80.7144ZM53.8029 58.2C50.3632 58.2 47.4184 56.9664 44.9686 54.4992C42.5194 52.0314 41.2949 49.065 41.2949 45.6C41.2949 42.135 42.5194 39.1689 44.9686 36.7017C47.4184 34.2339 50.3632 33 53.8029 33C57.2426 33 60.187 34.2339 62.6362 36.7017C65.0854 39.1689 66.31 42.135 66.31 45.6C66.31 49.065 65.0854 52.0314 62.6362 54.4992C60.187 56.9664 57.2426 58.2 53.8029 58.2ZM53.8029 52.8C55.7684 52.8 57.451 52.095 58.8507 50.685C60.2504 49.275 60.9503 47.58 60.9503 45.6C60.9503 43.62 60.2504 41.925 58.8507 40.515C57.451 39.105 55.7684 38.4 53.8029 38.4C51.8373 38.4 50.1547 39.105 48.755 40.515C47.3553 41.925 46.6554 43.62 46.6554 45.6C46.6554 47.58 47.3553 49.275 48.755 50.685C50.1547 52.095 51.8373 52.8 53.8029 52.8Z" fill="var(--fill-0, #E3E3E3)"/>
</g>
</svg>
