<svg preserveAspectRatio="none" width="100%" height="100%" overflow="visible" style="display: block;" viewBox="0 0 75 75" fill="none" xmlns="http://www.w3.org/2000/svg">
<g id="search_24dp_E3E3E3_FILL0_wght400_GRAD0_opsz24 1">
<path id="Vector" d="M29.6875 50C24.0104 50 19.2057 48.0339 15.2734 44.1016C11.3411 40.1693 9.375 35.3646 9.375 29.6875C9.375 24.0104 11.3411 19.2057 15.2734 15.2734C19.2057 11.3411 24.0104 9.375 29.6875 9.375C35.3646 9.375 40.1693 11.3411 44.1016 15.2734C48.0339 19.2057 50 24.0104 50 29.6875C50 31.9792 49.6354 34.1406 48.9063 36.1719C48.1771 38.2031 47.1875 40 45.9375 41.5625L63.4375 59.0625C64.0104 59.6354 64.2969 60.3646 64.2969 61.25C64.2969 62.1354 64.0104 62.8646 63.4375 63.4375C62.8646 64.0104 62.1354 64.2969 61.25 64.2969C60.3646 64.2969 59.6354 64.0104 59.0625 63.4375L41.5625 45.9375C40 47.1875 38.2031 48.1771 36.1719 48.9063C34.1406 49.6354 31.9792 50 29.6875 50ZM29.6875 43.75C33.5938 43.75 36.9141 42.3828 39.6484 39.6484C42.3828 36.9141 43.75 33.5938 43.75 29.6875C43.75 25.7813 42.3828 22.4609 39.6484 19.7266C36.9141 16.9922 33.5938 15.625 29.6875 15.625C25.7813 15.625 22.4609 16.9922 19.7266 19.7266C16.9922 22.4609 15.625 25.7813 15.625 29.6875C15.625 33.5938 16.9922 36.9141 19.7266 39.6484C22.4609 42.3828 25.7813 43.75 29.6875 43.75Z" fill="var(--fill-0, #2B7FFF)"/>
</g>
</svg>
